<svg width="300.000000" height="300.000000" viewBox="0 0 300 300" fill="none" xmlns="http://www.w3.org/2000/svg" xmlns:xlink="http://www.w3.org/1999/xlink">
	<desc>
			Created with Pixso.
	</desc>
	<defs>
		<linearGradient id="paint_linear_313_162_0" x1="182.365967" y1="135.226898" x2="252.515823" y2="164.892578" gradientUnits="userSpaceOnUse">
			<stop stop-color="#5E3FD9"/>
			<stop offset="0.529392" stop-color="#3E3A7B"/>
			<stop offset="1.000000" stop-color="#3A3372"/>
		</linearGradient>
	</defs>
	<rect id="Picture" width="300.000000" height="300.000000" fill="#13111C" fill-opacity="1.000000"/>
	<rect id="Logotype" width="200.000031" height="19.259260" transform="translate(50.000000 140.370361)" fill="#FFFFFF" fill-opacity="0"/>
	<path id="Wave.Agile" d="M59.4844 158.736C59.1301 159.034 58.699 159.257 58.1912 159.406C57.6833 159.555 57.1458 159.63 56.5789 159.63C55.1616 159.63 54.0652 159.251 53.2896 158.495C52.5178 157.734 52.1318 156.628 52.1318 155.175L52.1318 148.826L50 148.826L50 146.352L52.1318 146.352L52.1318 143.334L55.1558 143.334L55.1558 146.352L58.6104 146.352L58.6104 148.826L55.1558 148.826L55.1558 155.103C55.1558 155.747 55.3071 156.238 55.6104 156.576C55.9175 156.914 56.3623 157.083 56.9451 157.083C57.6223 157.083 58.1853 156.902 58.634 156.539L59.4844 158.736ZM61.9749 146.255L64.9985 146.255L64.9985 159.455L61.9749 159.455L61.9749 146.255ZM63.4985 144.076C62.9514 144.076 62.4927 143.899 62.1226 143.545C61.7524 143.191 61.5674 142.75 61.5674 142.223C61.5674 141.696 61.7524 141.256 62.1226 140.901C62.4927 140.547 62.9514 140.37 63.4985 140.37C64.0459 140.37 64.5046 140.539 64.8748 140.877C65.2488 141.215 65.4358 141.64 65.4358 142.151C65.4358 142.694 65.2546 143.151 64.8923 143.521C64.53 143.891 64.0654 144.076 63.4985 144.076ZM85.2712 146.104C86.8975 146.104 88.1868 146.587 89.1394 147.553C90.0923 148.514 90.5688 149.961 90.5688 151.892L90.5688 159.455L87.5449 159.455L87.5449 152.284C87.5449 151.13 87.2949 150.26 86.7949 149.677C86.2949 149.094 85.5764 148.802 84.6394 148.802C83.6235 148.802 82.8086 149.144 82.1943 149.828C81.5842 150.512 81.2791 151.488 81.2791 152.755L81.2791 159.455L78.2554 159.455L78.2554 152.284C78.2554 151.13 78.0054 150.26 77.5054 149.677C77.0054 149.094 76.2869 148.802 75.3496 148.802C74.3181 148.802 73.4993 149.14 72.8931 149.816C72.2905 150.488 71.9895 151.468 71.9895 152.755L71.9895 159.455L68.9658 159.455L68.9658 146.255L71.8418 146.255L71.8418 147.933C72.3262 147.341 72.9304 146.889 73.6548 146.575C74.3833 146.261 75.1902 146.104 76.0762 146.104C77.0447 146.104 77.9031 146.289 78.6509 146.659C79.4031 147.03 79.9956 147.579 80.4287 148.307C80.9641 147.615 81.6511 147.076 82.4897 146.69C83.3284 146.299 84.2556 146.104 85.2712 146.104ZM106.7 152.93C106.7 153.144 106.685 153.447 106.653 153.842L96.519 153.842C96.696 154.815 97.1587 155.586 97.907 156.153C98.6589 156.721 99.5898 157.004 100.7 157.004C102.122 157.004 103.291 156.527 104.208 155.574L105.832 157.475C105.25 158.183 104.515 158.72 103.629 159.086C102.744 159.448 101.744 159.63 100.629 159.63C99.2119 159.63 97.9619 159.342 96.8794 158.767C95.8005 158.187 94.9658 157.382 94.3752 156.352C93.7886 155.322 93.4954 154.155 93.4954 152.852C93.4954 151.568 93.7808 150.411 94.3516 149.381C94.9226 148.351 95.7158 147.549 96.7317 146.973C97.7512 146.394 98.897 146.104 100.169 146.104C101.429 146.104 102.553 146.39 103.541 146.961C104.533 147.528 105.307 148.327 105.862 149.357C106.421 150.387 106.7 151.578 106.7 152.93ZM100.169 148.579C99.2002 148.579 98.3813 148.872 97.7119 149.46C97.0427 150.043 96.6372 150.82 96.4954 151.789L103.824 151.789C103.694 150.836 103.299 150.063 102.637 149.472C101.976 148.876 101.153 148.579 100.169 148.579ZM129.512 146.255L124.747 159.455L121.841 159.455L118.504 150.359L115.12 159.455L112.215 159.455L107.473 146.255L110.331 146.255L113.739 155.996L117.294 146.255L119.833 146.255L123.317 156.045L126.825 146.255L129.512 146.255ZM136.113 146.104C138.018 146.104 139.475 146.571 140.483 147.504C141.491 148.434 141.995 149.838 141.995 151.717L141.995 159.455L139.136 159.455L139.136 157.849C138.766 158.425 138.239 158.865 137.554 159.171C136.869 159.477 136.042 159.63 135.073 159.63C134.109 159.63 133.262 159.461 132.534 159.123C131.809 158.785 131.248 158.316 130.851 157.716C130.457 157.113 130.26 156.431 130.26 155.67C130.26 154.483 130.691 153.532 131.553 152.816C132.416 152.099 133.776 151.741 135.634 151.741L138.971 151.741L138.971 151.542C138.971 150.621 138.699 149.912 138.156 149.418C137.617 148.923 136.815 148.675 135.752 148.675C135.028 148.675 134.313 148.792 133.609 149.025C132.908 149.255 132.315 149.574 131.831 149.985L130.65 147.734C131.327 147.207 132.14 146.804 133.089 146.527C134.042 146.245 135.05 146.104 136.113 146.104ZM135.705 157.378C136.461 157.378 137.132 157.201 137.719 156.847C138.31 156.493 138.727 155.986 138.971 155.326L138.971 153.793L135.847 153.793C134.107 153.793 133.237 154.379 133.237 155.55C133.237 156.109 133.453 156.553 133.886 156.883C134.323 157.213 134.929 157.378 135.705 157.378ZM157.717 146.255L152.178 159.455L149.06 159.455L143.52 146.255L146.662 146.255L150.678 156.045L154.812 146.255L157.717 146.255ZM171.384 152.93C171.384 153.144 171.368 153.447 171.337 153.842L161.202 153.842C161.379 154.815 161.842 155.586 162.59 156.153C163.342 156.721 164.273 157.004 165.383 157.004C166.804 157.004 167.974 156.527 168.891 155.574L170.515 157.475C169.933 158.183 169.198 158.72 168.312 159.086C167.427 159.448 166.427 159.63 165.312 159.63C163.895 159.63 162.645 159.342 161.562 158.767C160.484 158.187 159.649 157.382 159.058 156.352C158.472 155.322 158.178 154.155 158.178 152.852C158.178 151.568 158.464 150.411 159.035 149.381C159.605 148.351 160.399 147.549 161.415 146.973C162.434 146.394 163.58 146.104 164.852 146.104C166.112 146.104 167.236 146.39 168.224 146.961C169.216 147.528 169.99 148.327 170.545 149.357C171.104 150.387 171.384 151.578 171.384 152.93ZM164.852 148.579C163.883 148.579 163.064 148.872 162.395 149.46C161.726 150.043 161.32 150.82 161.178 151.789L168.507 151.789C168.377 150.836 167.982 150.063 167.32 149.472C166.659 148.876 165.836 148.579 164.852 148.579ZM175.255 159.63C174.705 159.63 174.236 159.437 173.85 159.05C173.465 158.66 173.272 158.169 173.272 157.578C173.272 156.966 173.461 156.471 173.839 156.093C174.216 155.715 174.688 155.526 175.255 155.526C175.819 155.526 176.29 155.715 176.667 156.093C177.049 156.471 177.24 156.966 177.24 157.578C177.24 158.169 177.045 158.66 176.656 159.05C176.27 159.437 175.803 159.63 175.255 159.63Z" fill="#FFFFFF" fill-opacity="1.000000" fill-rule="evenodd"/>
	<path id="Wave.Agile" d="M190.273 158.887C188.935 158.887 187.734 158.6 186.672 158.024C185.608 157.445 184.777 156.64 184.179 155.61C183.585 154.58 183.288 153.413 183.288 152.109C183.288 150.81 183.585 149.649 184.179 148.627C184.777 147.605 185.604 146.806 186.66 146.231C187.714 145.651 188.919 145.362 190.273 145.362C191.549 145.362 192.666 145.625 193.623 146.152C194.583 146.679 195.305 147.438 195.79 148.428L193.469 149.81C193.099 149.202 192.634 148.746 192.074 148.44C191.52 148.134 190.912 147.981 190.25 147.981C189.124 147.981 188.189 148.357 187.445 149.11C186.704 149.858 186.334 150.858 186.334 152.109C186.334 153.365 186.7 154.367 187.432 155.115C188.166 155.863 189.105 156.238 190.25 156.238C190.912 156.238 191.52 156.087 192.074 155.785C192.634 155.479 193.099 155.021 193.469 154.409L195.79 155.797C195.29 156.783 194.56 157.545 193.598 158.085C192.642 158.62 191.534 158.887 190.273 158.887ZM198.284 140.37L201.308 140.37L201.308 158.712L198.284 158.712L198.284 140.37ZM211.079 158.887C209.772 158.887 208.595 158.6 207.549 158.024C206.501 157.445 205.682 156.64 205.091 155.61C204.505 154.58 204.212 153.413 204.212 152.109C204.212 150.81 204.505 149.649 205.091 148.627C205.682 147.605 206.501 146.806 207.549 146.231C208.595 145.651 209.772 145.362 211.079 145.362C212.402 145.362 213.587 145.651 214.635 146.231C215.682 146.806 216.499 147.605 217.085 148.627C217.676 149.649 217.972 150.81 217.972 152.109C217.972 153.413 217.676 154.58 217.085 155.61C216.499 156.64 215.682 157.445 214.635 158.024C213.587 158.6 212.402 158.887 211.079 158.887ZM211.079 156.238C212.193 156.238 213.113 155.859 213.838 155.103C214.562 154.347 214.924 153.349 214.924 152.109C214.924 150.874 214.562 149.878 213.838 149.122C213.113 148.361 212.193 147.981 211.079 147.981C209.966 147.981 209.05 148.361 208.333 149.122C207.617 149.878 207.258 150.874 207.258 152.109C207.258 153.349 207.617 154.347 208.333 155.103C209.05 155.859 209.966 156.238 211.079 156.238ZM233.379 145.513L233.379 158.712L230.503 158.712L230.503 157.028C230.019 157.624 229.414 158.083 228.69 158.404C227.965 158.726 227.184 158.887 226.345 158.887C224.617 158.887 223.257 158.396 222.264 157.415C221.272 156.433 220.777 154.978 220.777 153.051L220.777 145.513L223.8 145.513L223.8 152.628C223.8 153.815 224.062 154.703 224.585 155.29C225.113 155.874 225.859 156.165 226.824 156.165C227.906 156.165 228.766 155.823 229.404 155.139C230.042 154.455 230.361 153.471 230.361 152.188L230.361 145.513L233.379 145.513ZM250 140.37L250 158.712L247.1 158.712L247.1 157.004C246.6 157.632 245.982 158.103 245.246 158.417C244.513 158.73 243.704 158.887 242.818 158.887C241.574 158.887 240.456 158.608 239.464 158.048C238.472 157.485 237.694 156.688 237.131 155.658C236.568 154.628 236.287 153.445 236.287 152.109C236.287 150.778 236.568 149.601 237.131 148.579C237.694 147.557 238.472 146.766 239.464 146.207C240.456 145.643 241.574 145.362 242.818 145.362C243.673 145.362 244.455 145.511 245.163 145.808C245.871 146.106 246.476 146.551 246.976 147.142L246.976 140.37L250 140.37ZM243.179 156.238C243.903 156.238 244.554 156.069 245.133 155.731C245.716 155.393 246.177 154.912 246.516 154.288C246.854 153.661 247.024 152.934 247.024 152.109C247.024 151.289 246.854 150.564 246.516 149.937C246.177 149.309 245.716 148.826 245.133 148.488C244.554 148.15 243.903 147.981 243.179 147.981C242.455 147.981 241.801 148.15 241.218 148.488C240.639 148.826 240.18 149.309 239.842 149.937C239.503 150.564 239.334 151.289 239.334 152.109C239.334 152.934 239.503 153.661 239.842 154.288C240.18 154.912 240.639 155.393 241.218 155.731C241.801 156.069 242.455 156.238 243.179 156.238Z" fill="url(#paint_linear_313_162_0)" fill-opacity="1.000000" fill-rule="evenodd"/>
</svg>
